#!OML:ASF H:\Terrain\Patient Classification 1\Walking\steve\steve.ASF
:FULLY-SPECIFIED
:DEGREES
16
root 6.82691 14.4354 -33.7321 17.1969 -13.5823 -5.03665
lowerback 0.397347 7.51935 -0.0665643
upperback -4.96658 9.92554 -3.52442
thorax -4.75168 4.87983 -4.01385
lowerneck -9.99858 -2.10146 -4.20283
upperneck 9.33678 -3.0458 7.34664
head 4.61267 -1.20565 2.74836
rclavicle -6.1822e-014 3.49861e-014
rhumerus -23.8031 14.5571 -82.1296
rradius 48.9252
rwrist -9.82556
rhand -20.4966 -38.4503
rfingers 7.12502
rthumb 5.86039 -68.3493
lclavicle -6.1822e-014 3.49861e-014
lhumerus -55.3206 29.5862 38.622
lradius 11.6003
lwrist -24.0343
lhand -23.4687 -14.7481
lfingers 7.12502
lthumb 2.99048 15.2107
rfemur 1.84311 6.01052 21.7583
rtibia 46.3419
rfoot -7.35682 -1.56675
rtoes -12.2741
lfemur -55.375 9.55882 -22.3189
ltibia 60.0907
lfoot -20.224 -2.32326
ltoes -2.52538
17
root 6.83143 14.5453 -33.4878 16.9141 -13.4461 -4.48528
lowerback 0.169875 7.35267 -0.592807
upperback -4.76527 9.69021 -3.5424
thorax -4.50995 4.7871 -3.69481
lowerneck -9.84716 -2.11999 -4.09658
upperneck 9.32164 -3.08182 7.27946
head 4.58221 -1.22678 2.70814
rclavicle -1.13307e-014 2.3059e-014
rhumerus -25.9642 13.924 -83.0797
rradius 47.8289
rwrist -8.88151
rhand -20.6939 -36.3905
rfingers 7.12502
rthumb 5.66988 -66.2946
lclavicle -1.13307e-014 2.3059e-014
lhumerus -52.6974 30.7181 41.9548
lradius 11.8334
lwrist -24.493
lhand -23.7124 -14.8028
lfingers 7.12502
lthumb 2.75511 15.1591
rfemur 0.101516 5.05835 21.2223
rtibia 48.4566
rfoot -7.8177 -3.90563
rtoes -3.80718
lfemur -53.2851 9.40483 -23.0395
ltibia 58.7839
lfoot -20.7928 -1.65456
ltoes -8.21077
18
root 6.83861 14.6365 -33.2501 16.5334 -13.3739 -4.11808
lowerback 0.299481 7.18235 -0.839359
upperback -4.69562 9.45011 -3.58283
thorax -4.5554 4.67405 -3.61164
lowerneck -9.3651 -2.17522 -4.17824
upperneck 9.11151 -3.16134 7.41576
head 4.44544 -1.27339 2.7607
rclavicle 2.28602e-015 2.38542e-015
rhumerus -27.9668 13.1706 -84.1671
rradius 46.6868
rwrist -8.43898
rhand -21.0505 -35.7021
rfingers 7.12502
rthumb 5.32556 -65.6152
lclavicle 2.28602e-015 2.38542e-015
lhumerus -49.5294 30.3011 46.4549
lradius 12.3038
lwrist -22.855
lhand -23.3194 -14.8207
lfingers 7.12502
lthumb 3.13462 15.136
rfemur -1.52582 4.52723 21.0092
rtibia 50.4945
rfoot -10.6132 -5.27152
rtoes 0.169797
lfemur -51.1065 9.16116 -23.3521
ltibia 57.4587
lfoot -21.2245 -2.11977
ltoes -6.49759
19
root 6.84615 14.7233 -33.0136 16.3981 -13.086 -4.35118
lowerback 0.457736 6.9626 -0.477113
upperback -4.77645 9.16861 -3.43767
thorax -4.70968 4.51936 -3.67676
lowerneck -9.28593 -2.12487 -4.42133
upperneck 9.47187 -3.1147 7.70063
head 4.54754 -1.23926 2.89443
rclavicle 1.08338e-014 -2.38542e-015
rhumerus -29.9491 12.6411 -85.2024
rradius 45.5635
rwrist -8.111
rhand -21.7039 -36.1863
rfingers 7.12502
rthumb 4.69468 -66.1143
lclavicle 1.08338e-014 -2.38542e-015
lhumerus -45.9775 28.0052 52.2401
lradius 13.2798
lwrist -18.9528
lhand -23.3567 -13.8954
lfingers 7.12502
lthumb 3.09859 16.0618
rfemur -3.33072 3.9632 21.5004
rtibia 52.3952
rfoot -14.7179 -4.85176
rtoes -2.65908
lfemur -49.1937 8.92138 -22.9961
ltibia 56.1479
lfoot -21.4043 -2.86985
ltoes -3.08215
20
root 6.85371 14.8237 -32.7654 16.3773 -12.8298 -4.26771
lowerback 0.214613 6.74007 -0.526767
upperback -4.82682 8.87924 -3.26279
thorax -4.67522 4.38099 -3.43418
lowerneck -9.03969 -2.0747 -4.50314
upperneck 9.62846 -3.03674 7.56943
head 4.54795 -1.21471 2.87446
rclavicle 1.10325e-014 8.74653e-015
rhumerus -31.9529 12.3712 -86.0236
rradius 44.4345
rwrist -7.44862
rhand -21.2628 -38.6397
rfingers 7.12502
rthumb 5.12065 -68.5578
lclavicle 1.10325e-014 8.74653e-015
lhumerus -43.0785 26.5529 56.9477
lradius 14.3473
lwrist -16.3352
lhand -23.7654 -12.2807
lfingers 7.12502
lthumb 2.70389 17.6819
rfemur -5.36101 3.17975 21.5737
rtibia 54.1482
rfoot -17.3142 -5.2784
rtoes -1.30372
lfemur -47.3199 8.5883 -23.077
ltibia 54.7841
lfoot -21.7168 -2.90828
ltoes -3.01628
21
root 6.85596 14.9097 -32.5227 16.1836 -12.7872 -3.88153
lowerback -0.0785816 6.56107 -1.03809
upperback -4.76117 8.63538 -3.13827
thorax -4.54735 4.28311 -2.98337
lowerneck -8.00493 -2.13291 -3.47563
upperneck 8.77757 -3.09238 6.31923
head 4.08408 -1.30636 2.31961
rclavicle -2.68359e-015 1.98785e-014
rhumerus -33.7767 12.2892 -86.7424
rradius 43.2821
rwrist -6.63501
rhand -21.0155 -36.8262
rfingers 7.12502
rthumb 5.35939 -66.7384
lclavicle -2.68359e-015 1.98785e-014
lhumerus -40.3128 25.877 60.5189
lradius 14.6507
lwrist -14.9223
lhand -24.2678 -13.2265
lfingers 7.12502
lthumb 2.21868 16.7417
rfemur -7.23748 2.79172 21.3711
rtibia 55.7582
rfoot -19.7177 -6.54158
rtoes 9.95605
lfemur -45.3351 8.30878 -23.5055
ltibia 53.4281
lfoot -22.0613 -2.60706
ltoes -3.97376
22
root 6.85913 14.9876 -32.2874 15.6351 -12.7616 -3.56171
lowerback 0.0209979 6.36954 -1.26269
upperback -4.56003 8.37342 -3.12735
thorax -4.43638 4.16134 -2.8396
lowerneck -9.35428 -1.68703 -3.73078
upperneck 10.467 -2.61237 7.18
head 4.81663 -0.98268 2.65757
rclavicle -3.4191e-014 1.03368e-014
rhumerus -35.3631 11.9434 -87.5257
rradius 41.9953
rwrist -5.05277
rhand -21.2878 -35.8135
rfingers 7.12502
rthumb 5.09646 -65.7322
lclavicle -3.4191e-014 1.03368e-014
lhumerus -37.2762 24.891 63.7292
lradius 14.6449
lwrist -13.3886
lhand -24.2041 -15.5574
lfingers 7.12502
lthumb 2.28023 14.4102
rfemur -8.65853 2.67918 21.2745
rtibia 57.2209
rfoot -20.4506 -8.30875
rtoes 1.82207
lfemur -43.0605 8.02918 -23.772
ltibia 52.0461
lfoot -22.3333 -2.39571
ltoes -4.16213
